<?xml version="1.0" standalone="no"?>
<!DOCTYPE svg PUBLIC "-//W3C//DTD SVG 20010904//EN"
 "http://www.w3.org/TR/2001/REC-SVG-20010904/DTD/svg10.dtd">
<svg version="1.0" xmlns="http://www.w3.org/2000/svg"
 width="192.000000pt" height="192.000000pt" viewBox="0 0 192.000000 192.000000"
 preserveAspectRatio="xMidYMid meet">

<g transform="translate(0.000000,192.000000) scale(0.100000,-0.100000)"
fill="#000000" stroke="none">
<path d="M571 1263 c3 -134 0 -194 -9 -210 -15 -27 -16 -97 -2 -124 6 -11 11
-98 11 -212 0 -105 3 -204 6 -219 l5 -28 152 4 c83 1 159 6 168 10 38 17 46
63 48 257 1 184 0 186 -25 224 -16 23 -22 40 -16 44 22 14 29 65 30 233 1 148
-2 179 -15 192 -13 13 -44 16 -185 16 l-170 0 2 -187z m224 -75 c0 -137 -3
-144 -51 -132 -24 6 -28 25 -26 134 0 14 0 49 1 78 l1 53 38 -3 37 -3 0 -127z
m-3 -370 c4 -228 6 -212 -28 -215 -16 -1 -34 1 -39 5 -6 4 -9 65 -7 160 l4
152 34 0 34 0 2 -102z"/>
<path d="M1025 1424 c-23 -25 -25 -34 -25 -130 0 -72 4 -104 13 -108 9 -4 9
-7 0 -12 -8 -3 -11 -98 -12 -336 -2 -298 0 -332 15 -349 15 -17 33 -19 166
-19 194 0 190 -3 186 153 l-3 112 -67 3 -67 3 2 -70 c2 -69 1 -71 -25 -76 -14
-4 -35 -1 -45 5 -17 11 -18 30 -13 363 l5 352 40 0 c37 0 40 -2 42 -30 3 -67
6 -70 66 -73 37 -2 57 1 57 8 0 6 -4 8 -10 5 -5 -3 -10 -1 -10 4 0 6 -8 11
-17 11 -14 0 -14 3 -5 12 10 10 15 10 21 -1 19 -30 31 2 31 80 0 115 -2 117
-179 118 -141 2 -141 2 -166 -25z"/>
</g>
</svg>
